<svg xmlns="http://www.w3.org/2000/svg" width="35.01" height="29.154" viewBox="0 0 35.01 29.154">
  <g id="car-svg" transform="translate(0.499 0.498)">
    <path id="Path_91950" data-name="Path 91950" d="M612.735-201.687a8.818,8.818,0,0,1,1.5-2.857,3.946,3.946,0,0,0,.563-1.33c.093-.453.217-.9.339-1.393-.352,0-.679,0-1.005,0-.418-.005-.659-.2-.662-.537s.235-.532.655-.538c.332-.005.665-.012,1,0,.212.009.3-.052.358-.274.425-1.75.867-3.5,1.3-5.243a3.446,3.446,0,0,1,3.447-2.7q9.513,0,19.026,0a3.446,3.446,0,0,1,3.447,2.7c.437,1.747.879,3.493,1.3,5.243.054.222.147.283.358.275.354-.014.709-.011,1.063,0a.535.535,0,0,1,.588.537.547.547,0,0,1-.6.536c-.177.007-.354,0-.531,0h-.554a9.5,9.5,0,0,0,.848,2.609c.236.334.43.7.663,1.033a5.614,5.614,0,0,1,.9,1.938v8.37a.689.689,0,0,1-.727.4v.373c0,1.151,0,2.3,0,3.453,0,.473-.194.676-.661.677q-2.739.007-5.478,0c-.447,0-.642-.207-.645-.657q-.007-1.062,0-2.125c0-.39.21-.626.532-.629s.537.236.541.621c.006.551,0,1.1,0,1.677h4.614V-192.9H614.562v3.365h4.61c0-.33,0-.668,0-1.005,0-.266-.01-.532.011-.8a.521.521,0,0,1,.532-.488.508.508,0,0,1,.522.5q.022,1.2,0,2.39c-.006.331-.231.515-.6.524-.42.011-.841,0-1.262,0H614.29c-.674,0-.828-.151-.828-.812,0-1.217,0-2.433,0-3.678a.72.72,0,0,1-.727-.42Zm32.9,7.69c.012-.1.024-.154.024-.207,0-2.347.02-4.694-.017-7.041a2.851,2.851,0,0,0-.387-1.244c-.362-.67-.812-1.292-1.212-1.942a2.2,2.2,0,0,1-.264-.6c-.7-2.787-1.422-5.569-2.07-8.368a2.593,2.593,0,0,0-2.636-2.083c-5.823.029-11.646.013-17.47.013-.487,0-.974-.009-1.461,0a2.347,2.347,0,0,0-2.3,1.837c-.531,2.112-1.112,4.213-1.565,6.341a11.573,11.573,0,0,1-2.026,4.732,2.349,2.349,0,0,0-.438,1.469q0,3.354,0,6.709c0,.118.01.236.015.356a1.222,1.222,0,0,0,.159.025c2.568,0,5.137,0,7.705.007.211,0,.256-.121.315-.267.38-.955.77-1.906,1.139-2.865a.7.7,0,0,1,.723-.506q5.862.007,11.724,0a.7.7,0,0,1,.73.5c.366.949.757,1.887,1.122,2.836a.411.411,0,0,0,.459.306c2.458-.01,4.915-.006,7.373-.006Zm-22.557-.022H636.4c-.3-.747-.6-1.457-.863-2.18a.447.447,0,0,0-.5-.343q-5.292.014-10.584.006a.554.554,0,0,0-.2.005c-.081.034-.19.082-.219.152C623.712-195.606,623.406-194.828,623.082-194.019Z" transform="translate(-612.734 216.562)" fill="#fff" stroke="#fff" stroke-width="1"/>
    <path id="Path_91951" data-name="Path 91951" d="M637.547-183.17H625.559c-.111,0-.221,0-.332,0a.544.544,0,0,1-.586-.542.553.553,0,0,1,.6-.532c.088,0,.177,0,.265,0h24.11a2.9,2.9,0,0,1,.4.011.523.523,0,0,1,.467.552.509.509,0,0,1-.481.5,3.234,3.234,0,0,1-.365.009Z" transform="translate(-620.557 195.33)" fill="#fff" stroke="#fff" stroke-width="1"/>
    <path id="Path_91952" data-name="Path 91952" d="M620.753-171.092c.365,0,.731.022,1.094,0a1.811,1.811,0,0,0,1.665-1.856,1.821,1.821,0,0,0-1.731-1.8c-.552-.023-1.106,0-1.659-.013-.391-.008-.623-.221-.619-.546,0-.263.135-.491.391-.5a5.611,5.611,0,0,1,3.24.366,2.755,2.755,0,0,1,1.453,2.644,2.709,2.709,0,0,1-1.976,2.624,7.475,7.475,0,0,1-1.731.193c-.363.026-.73.008-1.1,0-.443-.006-.684-.2-.683-.551s.236-.532.69-.54c.321-.005.642,0,.962,0Z" transform="translate(-616.917 189.828)" fill="#fff" stroke="#fff" stroke-width="1"/>
    <path id="Path_91953" data-name="Path 91953" d="M693.362-169.861a14.587,14.587,0,0,1-1.921-.278,2.91,2.91,0,0,1-1.948-2.92,2.925,2.925,0,0,1,2.623-2.713c.606-.037,1.215-.037,1.824-.035.424,0,.652.208.649.545s-.24.536-.658.542c-.531.008-1.063-.009-1.593.01a1.816,1.816,0,0,0-1.747,1.64,1.814,1.814,0,0,0,1.427,1.989,6.948,6.948,0,0,0,1.158.051c.409.008.819-.008,1.227.008.378.015.586.222.585.539s-.22.518-.588.545c-.022,0-.044,0-.066,0h-.963Z" transform="translate(-663.162 189.786)" fill="#fff" stroke="#fff" stroke-width="1"/>
  </g>
</svg>
