<svg xmlns="http://www.w3.org/2000/svg" width="30" height="30" viewBox="0 0 30 30">
  <g id="cross-search" transform="translate(-696 -29)">
    <circle id="Ellipse_3387" data-name="Ellipse 3387" cx="15" cy="15" r="15" transform="translate(696 29)" fill="#e1e1e1"/>
    <g id="Group_178122" data-name="Group 178122" transform="translate(-77.07 100.908)">
      <path id="Path_91907" data-name="Path 91907" d="M793.565-62.908h.267a2.767,2.767,0,0,1,.344.161.8.8,0,0,1,.31.494v.267a1.391,1.391,0,0,1-.415.595q-2.3,2.289-4.586,4.583a.741.741,0,0,1-.12.081v.057a.742.742,0,0,1,.12.081q2.293,2.291,4.586,4.583a1.4,1.4,0,0,1,.415.595v.267c-.029.078-.052.159-.088.233a.818.818,0,0,1-.566.421h-.243a1.181,1.181,0,0,1-.57-.367Q790.7-53.18,788.383-55.5c-.033-.034-.068-.066-.115-.11-.039.045-.068.084-.1.118q-2.314,2.314-4.628,4.63a1.186,1.186,0,0,1-.571.365h-.242a.82.82,0,0,1-.5-.321,2.964,2.964,0,0,1-.151-.309v-.291a1.387,1.387,0,0,1,.407-.586q2.3-2.293,4.6-4.591a.749.749,0,0,1,.121-.081v-.057a.717.717,0,0,1-.12-.082q-2.3-2.3-4.6-4.59a1.4,1.4,0,0,1-.407-.586v-.291a.861.861,0,0,1,.655-.631h.266a1.372,1.372,0,0,1,.595.416q2.289,2.3,4.584,4.586a.827.827,0,0,1,.082.12h.055a.823.823,0,0,1,.081-.121q2.291-2.293,4.584-4.586A1.393,1.393,0,0,1,793.565-62.908Z" transform="translate(0 0)" stroke="#000" stroke-width="0.2"/>
    </g>
  </g>
</svg>
