<svg xmlns="http://www.w3.org/2000/svg" width="21.333" height="13.524" viewBox="0 0 21.333 13.524">
  <g id="filter-svg" transform="translate(-664.729 -547.736)">
    <path id="Path_91965" data-name="Path 91965" d="M675.407,547.737h9.737a1.577,1.577,0,0,1,.308.016.761.761,0,0,1-.1,1.5c-.055,0-.111,0-.167,0q-9.784,0-19.569,0a.8.8,0,0,1-.815-.459.757.757,0,0,1,.635-1.064c.079-.007.159,0,.238,0Z" transform="translate(0)" fill="#fff"/>
    <path id="Path_91966" data-name="Path 91966" d="M697.9,643.737q4.142,0,8.284,0a.761.761,0,0,1,.787,1.012.741.741,0,0,1-.658.508,2.117,2.117,0,0,1-.238,0c-5.467,0-9.935,0-15.4,0a1.436,1.436,0,0,1-.422-.046.748.748,0,0,1-.513-.816.768.768,0,0,1,.71-.657c.079-.005.159,0,.238,0Z" transform="translate(-22.999 -89.999)" fill="#fff"/>
    <path id="Path_91968" data-name="Path 91968" d="M787.82,835.747h2.166A.768.768,0,1,1,790,837.27H785.62a.768.768,0,1,1,.011-1.523Z" transform="translate(-112.034 -276.01)" fill="#fff"/>
  </g>
</svg>
