<svg xmlns="http://www.w3.org/2000/svg" width="14.539" height="19.909" viewBox="0 0 14.539 19.909">
  <g id="flag" transform="translate(-723.014 -39.779)">
    <path id="Path_91947" data-name="Path 91947" d="M726.812,58.566c.63,0,1.247,0,1.865,0,.468,0,.729.208.724.568s-.261.552-.7.552q-2.487,0-4.975,0c-.439,0-.7-.211-.707-.554s.26-.564.695-.566c.63,0,1.26,0,1.942,0v-.454c0-7.041,0-10.448,0-17.489,0-.578.172-.839.554-.843s.6.269.557.832a.642.642,0,0,0,.467.719c3.3,1.55,6.6,3.121,9.9,4.681a.584.584,0,0,1,.006,1.124q-5.059,2.392-10.11,4.8a.455.455,0,0,0-.237.315c-.011,3.281-.007,2.928-.005,6.209A.536.536,0,0,0,726.812,58.566Zm-.025-7.767,8.89-4.224-8.89-4.224Z" transform="translate(0)"/>
  </g>
</svg>
