<svg xmlns="http://www.w3.org/2000/svg" width="44.084" height="27.828" viewBox="0 0 44.084 27.828">
  <g id="cycle" transform="translate(0.5 0.5)">
    <path id="Path_91954" data-name="Path 91954" d="M660.841-156.086c-.105.491-.187.988-.32,1.472a8.76,8.76,0,0,1-8.9,6.458,8.721,8.721,0,0,1-8.2-7.213,8.519,8.519,0,0,1,2.936-8.228.5.5,0,0,0,.166-.7c-.434-1-.825-2.015-1.256-3.082-.087.135-.169.254-.242.377-2.046,3.443-4.107,6.877-6.126,10.336a1.745,1.745,0,0,1-1.8,1.009c-.6-.047-1.2-.009-1.823-.009-.075.331-.138.645-.218.954a8.786,8.786,0,0,1-9.293,6.535,8.79,8.79,0,0,1-7.926-7.629,1.906,1.906,0,0,0-.076-.281v-1.683c.1-.478.177-.962.3-1.432a8.773,8.773,0,0,1,10.619-6.247c.081.02.164.029.323.055-.125-.332-.231-.624-.344-.912-.188-.482-.4-.957-.565-1.447a.481.481,0,0,0-.583-.38,6.961,6.961,0,0,1-.967,0,1.271,1.271,0,0,1-1.255-1.268,1.255,1.255,0,0,1,1.3-1.25c1.388-.007,2.776,0,4.164,0a1.259,1.259,0,0,1,1.394,1.2,1.267,1.267,0,0,1-1.28,1.325c-.054.005-.108.015-.208.029.185.462.35.9.545,1.333a.378.378,0,0,0,.294.146q5.048.011,10.1,0a.541.541,0,0,0,.384-.234q1.114-1.831,2.187-3.686a.538.538,0,0,0-.022-.474,3.136,3.136,0,0,0-2.33-1.408c-.167-.019-.336-.022-.5-.047a1.244,1.244,0,0,1-1.1-1.355,1.253,1.253,0,0,1,1.28-1.142,5.707,5.707,0,0,1,5.379,3.8c.364,1.071.582,2.191.931,3.268.3.928.69,1.826,1.015,2.669a26.235,26.235,0,0,1,2.712-.45,8.74,8.74,0,0,1,9.231,7.632,2.128,2.128,0,0,0,.076.281Zm-28.192-2.1a6.218,6.218,0,0,0-6.839-4.965,6.3,6.3,0,0,0-5.522,6.58,6.282,6.282,0,0,0,6.313,5.908c2.943-.035,5.954-2.52,6.024-5h-.459c-1.864,0-3.729.006-5.594,0a1.255,1.255,0,0,1-1.281-1.277,1.257,1.257,0,0,1,1.276-1.24c.94-.012,1.879,0,2.818,0Zm15.188-3.308a6.14,6.14,0,0,0-1.085,7.908,6.255,6.255,0,0,0,8.452,2.071,6.25,6.25,0,0,0,2.379-8.337,6.154,6.154,0,0,0-7.539-2.957c.06.124.111.251.18.368.929,1.566,1.853,3.135,2.8,4.691a1.308,1.308,0,0,1-.256,1.862,1.259,1.259,0,0,1-1.842-.459c-.552-.844-1.092-1.7-1.61-2.561S648.328-160.634,647.837-161.5ZM632.21-164.07a5.143,5.143,0,0,0,.561.925,9.027,9.027,0,0,1,2.283,4c.081.308.142.622.216.951.427,0,.833-.017,1.237.006a.508.508,0,0,0,.526-.305c1.028-1.75,2.069-3.493,3.1-5.238.06-.1.108-.213.174-.343Z" transform="translate(-617.757 174.967)" fill="rgba(255,255,255,0)" stroke="#fff" stroke-width="1"/>
  </g>
</svg>
