<svg xmlns="http://www.w3.org/2000/svg" width="18.947" height="32.494" viewBox="0 0 18.947 32.494">
  <g id="ic_android" transform="translate(533.812 -339.55)">
    <path id="Path_92358" data-name="Path 92358" d="M-515.116,342.3a2.577,2.577,0,0,0-.258-1.206,2.5,2.5,0,0,0-1.772-1.289h-14.372a2.539,2.539,0,0,0-2.043,2.808c.024,8.841.012,17.682.012,26.523a3.277,3.277,0,0,0,.075.867,2.343,2.343,0,0,0,2.426,1.795q6.7,0,13.4,0a2.352,2.352,0,0,0,2.529-2.506Q-515.11,355.791-515.116,342.3Zm-.929,24.2c-.02.926,0,1.853-.008,2.78a1.429,1.429,0,0,1-1.59,1.577h-13.37a1.434,1.434,0,0,1-1.6-1.6c0-.937.007-1.874-.006-2.811,0-.212.042-.29.267-.278.353.019.708.01,1.062,0s.544-.189.542-.471-.207-.458-.55-.463c-.375-.005-.75-.008-1.125,0-.149,0-.214-.037-.191-.191a1.082,1.082,0,0,0,0-.156q0-10.028-.007-20.055c0-.278.061-.355.349-.354q7.935.015,15.87,0c.281,0,.354.066.353.351-.011,3.353-.007,6.706-.007,10.059s0,6.685.006,10.028c0,.257-.056.322-.319.322q-6.326-.014-12.652-.007c-.094,0-.188,0-.281,0a.468.468,0,0,0-.492.458.47.47,0,0,0,.505.476c.083,0,.167,0,.25,0q6.326,0,12.652-.007C-516.111,366.162-516.039,366.223-516.045,366.5Zm-.289-22.943c-2.072-.01-4.145-.006-6.217-.006h-1.812c-2.645,0-5.29,0-7.935.007-.262,0-.337-.062-.318-.322.028-.4,0-.813.028-1.217a1.369,1.369,0,0,1,1.306-1.274c.1-.007.208-.005.312-.005h13.278a1.446,1.446,0,0,1,1.64,1.622c0,.3-.017.605.005.906C-516.03,343.5-516.1,343.557-516.334,343.555Z" transform="translate(0)" fill="#333" stroke="#333" stroke-width="0.5"/>
    <path id="Path_92359" data-name="Path 92359" d="M-419.9,364.7c-.291,0-.583.007-.874,0a.471.471,0,0,1-.517-.465.466.466,0,0,1,.513-.468q.89-.012,1.78,0a.46.46,0,0,1,.5.479.462.462,0,0,1-.5.452C-419.293,364.7-419.595,364.7-419.9,364.7Z" transform="translate(-103.504 -22.084)" fill="#333" stroke="#333" stroke-width="0.5"/>
    <path id="Path_92360" data-name="Path 92360" d="M-444.376,364.3a.47.47,0,0,1-.435.48.472.472,0,0,1-.483-.465.473.473,0,0,1,.453-.464A.469.469,0,0,1-444.376,364.3Z" transform="translate(-81.372 -22.171)" fill="#333" stroke="#333" stroke-width="0.5"/>
    <path id="Path_92361" data-name="Path 92361" d="M-431.925,689.425a1.41,1.41,0,0,0-1.411,1.4,1.41,1.41,0,0,0,1.407,1.406,1.408,1.408,0,0,0,1.394-1.387A1.407,1.407,0,0,0-431.925,689.425Zm0,1.869a.468.468,0,0,1-.468-.447.467.467,0,0,1,.463-.483.472.472,0,0,1,.455.462A.472.472,0,0,1-431.925,691.293Z" transform="translate(-92.397 -322.316)" fill="#333" stroke="#333" stroke-width="0.5"/>
  </g>
</svg>
