<svg xmlns="http://www.w3.org/2000/svg" width="32.2" height="32.195" viewBox="0 0 32.2 32.195">
  <g id="ic_coronavirus" transform="translate(871.077 -428.847)">
    <path id="Path_92385" data-name="Path 92385" d="M-840.162,443.987c-.754,0-1.508-.012-2.262.005-.279.006-.385-.08-.409-.364a10.8,10.8,0,0,0-.98-3.648c-.118-.256-.077-.373.17-.506.693-.376,1.374-.775,2.053-1.177a.958.958,0,0,0,.468-1.382.945.945,0,0,0-1.4-.254q-1.054.6-2.1,1.213c-.183.108-.294.131-.44-.076a11.533,11.533,0,0,0-2.749-2.761c-.218-.156-.229-.268-.1-.481q.61-1.013,1.19-2.045a.967.967,0,0,0-.26-1.435c-.5-.291-1.019-.109-1.373.494-.4.68-.8,1.362-1.178,2.051-.119.214-.218.28-.465.164a10.736,10.736,0,0,0-3.644-.99c-.348-.03-.406-.189-.4-.5.021-.753.016-1.508,0-2.261-.012-.7-.375-1.1-.965-1.092s-.905.385-.916,1.075c-.012.735-.027,1.472.007,2.206.018.393-.088.549-.5.582a10.278,10.278,0,0,0-3.486.946c-.313.144-.436.068-.584-.2-.367-.677-.758-1.341-1.149-2a.95.95,0,0,0-1.334-.482.955.955,0,0,0-.294,1.423c.387.687.779,1.372,1.188,2.046.144.237.123.356-.113.525a11.231,11.231,0,0,0-2.676,2.679c-.19.269-.318.242-.561.093-.657-.4-1.33-.778-2-1.156-.617-.348-1.139-.245-1.431.268s-.1,1.008.51,1.367c.68.4,1.362.8,2.053,1.176.225.124.259.237.151.471a10.914,10.914,0,0,0-.994,3.7c-.022.266-.121.338-.373.334-.735-.013-1.472.02-2.206-.013a1.282,1.282,0,0,0-1.28.656v.662a1.437,1.437,0,0,0,1.365.582c.7-.042,1.4,0,2.1-.016.285-.007.377.091.4.372a10.8,10.8,0,0,0,.956,3.6c.131.286.134.427-.175.588-.682.357-1.34.759-2,1.149-.607.356-.785.864-.49,1.371a.973.973,0,0,0,1.441.251c.67-.379,1.339-.762,2-1.159.224-.135.358-.158.532.089a11.438,11.438,0,0,0,2.719,2.714c.22.157.221.273.091.486-.408.675-.8,1.36-1.187,2.046a.96.96,0,0,0,.271,1.431c.5.279,1.013.092,1.368-.512.391-.664.787-1.325,1.151-2,.148-.276.286-.3.554-.171a11.156,11.156,0,0,0,3.594.971c.312.033.4.129.393.43-.018.79-.006,1.581-.005,2.372a.971.971,0,0,0,.386.867.887.887,0,0,0,.936.1.955.955,0,0,0,.56-.935c.01-.809.013-1.618,0-2.427,0-.269.059-.375.357-.4a11.052,11.052,0,0,0,3.647-.983c.256-.119.376-.09.513.161.377.693.776,1.373,1.177,2.052a.959.959,0,0,0,1.382.465.94.94,0,0,0,.253-1.392c-.386-.688-.776-1.374-1.187-2.046-.145-.238-.129-.362.1-.526a11.173,11.173,0,0,0,2.679-2.675c.191-.269.339-.242.577-.1.659.4,1.326.784,2,1.165a.968.968,0,0,0,1.4-.245.943.943,0,0,0-.455-1.38c-.661-.4-1.325-.787-2-1.156-.263-.144-.363-.25-.213-.573a10.559,10.559,0,0,0,.963-3.6c.025-.3.135-.405.442-.4.753.021,1.508.01,2.261.006s1.163-.343,1.154-.948S-839.411,443.991-840.162,443.987Zm-14.83,11.312a10.39,10.39,0,0,1-10.343-10.408,10.376,10.376,0,0,1,10.44-10.3,10.353,10.353,0,0,1,10.282,10.4A10.383,10.383,0,0,1-854.992,455.3Z" transform="translate(0 0)" fill="#333" stroke="#333" stroke-width="0.2"/>
    <path id="Path_92386" data-name="Path 92386" d="M-753.8,493.785a.957.957,0,0,1-.945.95.915.915,0,0,1-.926-.9.923.923,0,0,1,.9-.978A.96.96,0,0,1-753.8,493.785Z" transform="translate(-98.34 -54.512)" fill="#333" stroke="#333" stroke-width="0.2"/>
    <path id="Path_92387" data-name="Path 92387" d="M-793.212,556.827a.938.938,0,0,1,.911.972.91.91,0,0,1-.973.9.933.933,0,0,1-.894-.932A.959.959,0,0,1-793.212,556.827Z" transform="translate(-65.51 -109.069)" fill="#333" stroke="#333" stroke-width="0.2"/>
    <path id="Path_92388" data-name="Path 92388" d="M-758.438,531.2a3.794,3.794,0,0,0-3.753,3.759,3.766,3.766,0,0,0,3.782,3.771,3.739,3.739,0,0,0,3.739-3.747A3.762,3.762,0,0,0-758.438,531.2Zm.007,5.643a1.874,1.874,0,0,1-1.879-1.893,1.91,1.91,0,0,1,1.864-1.868,1.886,1.886,0,0,1,1.894,1.88A1.849,1.849,0,0,1-758.431,536.844Z" transform="translate(-92.784 -87.212)" fill="#333" stroke="#333" stroke-width="0.2"/>
    <path id="Path_92389" data-name="Path 92389" d="M-804.115,499.3a2.827,2.827,0,0,0-2.9,2.768,2.856,2.856,0,0,0,2.753,2.876,2.838,2.838,0,0,0,2.9-2.78A2.813,2.813,0,0,0-804.115,499.3Zm-.066,3.758a.96.96,0,0,1-.948-.946.932.932,0,0,1,.9-.925.912.912,0,0,1,.966.905A.94.94,0,0,1-804.181,503.06Z" transform="translate(-54.549 -60.005)" fill="#333" stroke="#333" stroke-width="0.2"/>
  </g>
</svg>
