<svg xmlns="http://www.w3.org/2000/svg" width="32.4" height="27.232" viewBox="0 0 32.4 27.232">
  <path id="ic_company" d="M-389.739,375.514a2.575,2.575,0,0,0-2.492-2.291c-.582.016-1.166,0-1.749,0q-2.28,0-4.559,0c-.369,0-.387-.021-.392-.387,0-.25,0-.5,0-.749a2.837,2.837,0,0,0-2.921-2.876c-2.632.051-5.267.011-7.9.015A2.709,2.709,0,0,0-412.4,371.4a6.475,6.475,0,0,0-.087,1.337c0,.483,0,.484-.484.485q-3.06,0-6.12,0a2.222,2.222,0,0,0-.8.12,2.538,2.538,0,0,0-1.817,2.161v18.25a2.528,2.528,0,0,0,.317,1,2.734,2.734,0,0,0,2.39,1.289q5.639-.008,11.279,0,7.67,0,15.341,0a2.571,2.571,0,0,0,1.263-.291,2.466,2.466,0,0,0,1.411-2V375.569C-389.722,375.551-389.74,375.532-389.739,375.514ZM-411.045,373c.023-.363,0-.729.011-1.093a1.3,1.3,0,0,1,1.284-1.272q4.031-.014,8.062,0a1.3,1.3,0,0,1,1.3,1.289c.013.375-.009.751.01,1.125.011.213-.063.259-.264.258-1.7-.007-3.4,0-5.094,0-1.667,0-3.333-.005-5,.006C-410.979,373.31-411.06,373.251-411.045,373Zm-7.821,1.63h26.309a1.363,1.363,0,0,1,1.518,1.526q0,2.484,0,4.968a1.361,1.361,0,0,1-1.508,1.506c-3.4,0-6.791,0-10.186.007-.273,0-.339-.079-.311-.328a1.615,1.615,0,0,0-.02-.466.6.6,0,0,0-.6-.532c-1.364-.009-2.729-.011-4.093,0-.385,0-.606.286-.625.717-.026.6-.026.6-.619.6h-9.873a1.359,1.359,0,0,1-1.507-1.505q0-2.484,0-4.968A1.362,1.362,0,0,1-418.866,374.631Zm14.483,9.312c0,.384-.007.769,0,1.153,0,.165-.052.212-.214.21q-1.122-.011-2.244,0c-.173,0-.206-.066-.2-.219q.009-1.122,0-2.244c0-.151.021-.219.2-.217.758.01,1.517.008,2.275,0,.153,0,.194.044.19.193C-404.389,383.195-404.382,383.569-404.382,383.943Zm13.344,0q0,4.561,0,9.123a1.379,1.379,0,0,1-1.576,1.563h-26.212a1.372,1.372,0,0,1-1.556-1.55q0-4.561,0-9.123v-.374a3.224,3.224,0,0,0,1.8.378c3.28-.007,6.561,0,9.841-.009.271,0,.382.045.365.348-.029.509-.011,1.02-.007,1.53a.7.7,0,0,0,.806.8q1.874,0,3.749,0a.693.693,0,0,0,.787-.786c.005-.51.017-1.021,0-1.53-.012-.276.055-.364.351-.363,3.134.012,6.269.009,9.4.007a3.934,3.934,0,0,0,2.251-.37Z" transform="translate(421.911 -369.011)" fill="#333" stroke="#333" stroke-width="0.4"/>
</svg>
