<svg xmlns="http://www.w3.org/2000/svg" width="31.998" height="27.506" viewBox="0 0 31.998 27.506">
  <g id="ic_corrections" transform="translate(636.2 -323.635)">
    <path id="Path_92380" data-name="Path 92380" d="M-604.688,346.661q-5.236-8.692-10.478-17.382l-2.512-4.165a2.816,2.816,0,0,0-2.386-1.477,2.856,2.856,0,0,0-2.7,1.535c-2.9,4.807-5.818,9.6-8.68,14.424-1.607,2.708-3.42,5.3-4.759,8.162v.938a6.76,6.76,0,0,0,.238.694,2.854,2.854,0,0,0,2.807,1.75q12.952,0,25.9,0c.1,0,.208,0,.312-.006a2.761,2.761,0,0,0,1.686-.648A2.861,2.861,0,0,0-604.688,346.661Zm-2.3,2.39a2.554,2.554,0,0,1-.374.013h-25.689a2.315,2.315,0,0,1-.374-.016.779.779,0,0,1-.6-1.128,2.681,2.681,0,0,1,.149-.273L-621,326.284c.011-.018.024-.034.034-.052a.812.812,0,0,1,1.517-.011c.32.523.635,1.049.951,1.575l11.947,19.813a3.226,3.226,0,0,1,.168.3A.781.781,0,0,1-606.989,349.051Z" transform="translate(0)" fill="#333"/>
    <path id="Path_92381" data-name="Path 92381" d="M-446.611,438.643c-.03.952-.08,2.242-.109,3.533a.843.843,0,0,1-.588.854,1.589,1.589,0,0,1-1.128.012.745.745,0,0,1-.546-.75c-.034-2.572-.238-5.139-.267-7.711a1.134,1.134,0,0,1,.787-1.265,1.637,1.637,0,0,1,1.778.387,1.289,1.289,0,0,1,.223.855C-446.475,435.808-446.518,437.057-446.611,438.643Z" transform="translate(-172.345 -101.015)" fill="#333"/>
    <path id="Path_92382" data-name="Path 92382" d="M-449.961,578.913a1.479,1.479,0,0,1,1.479-1.491,1.515,1.515,0,0,1,1.468,1.485,1.528,1.528,0,0,1-1.462,1.494A1.488,1.488,0,0,1-449.961,578.913Z" transform="translate(-171.688 -233.959)" fill="#333"/>
  </g>
</svg>
