<svg xmlns="http://www.w3.org/2000/svg" width="32.129" height="32.165" viewBox="0 0 32.129 32.165">
  <g id="ic_edit" transform="translate(664.591 -449.469)">
    <path id="Path_92377" data-name="Path 92377" d="M-655.558,624.793c-2.829,0-5.658-.006-8.486.008-.326,0-.392-.085-.4-.4a16.382,16.382,0,0,1,1.626-7.646,16.291,16.291,0,0,1,6.413-6.7,23.418,23.418,0,0,1,3.131-1.555.573.573,0,0,1,.539.023,9.732,9.732,0,0,0,9.307.01c.132-.067.249-.168.427-.1a15.733,15.733,0,0,1,4.107,2.152.762.762,0,0,1,.265.956.767.767,0,0,1-.821.441.967.967,0,0,1-.444-.218,12.051,12.051,0,0,0-2.9-1.573.6.6,0,0,0-.507.005,11.365,11.365,0,0,1-9.551,0,.447.447,0,0,0-.4-.032,16.549,16.549,0,0,0-7.373,5.864,14,14,0,0,0-2.252,6.91c-.024.325.128.308.353.308q7.638-.006,15.275,0c.129,0,.258,0,.386,0a.75.75,0,0,1,.739.737.761.761,0,0,1-.721.8c-.115.011-.231,0-.347,0Z" transform="translate(0 -143.317)" fill="#333" stroke="#333" stroke-width="0.3"/>
    <path id="Path_92378" data-name="Path 92378" d="M-572.546,449.619a7.719,7.719,0,0,0-7.74,7.7,7.722,7.722,0,0,0,7.7,7.74,7.721,7.721,0,0,0,7.74-7.7A7.719,7.719,0,0,0-572.546,449.619Zm-.063,13.9a6.173,6.173,0,0,1-6.134-6.211,6.17,6.17,0,0,1,6.2-6.142,6.17,6.17,0,0,1,6.153,6.19A6.172,6.172,0,0,1-572.609,463.515Z" transform="translate(-75.999 0)" fill="#333" stroke="#333" stroke-width="0.3"/>
    <path id="Path_92379" data-name="Path 92379" d="M-456,648.5c-.444-.464-.9-.917-1.361-1.364a2.3,2.3,0,0,0-3.343.014q-3.313,3.284-6.608,6.584a1.576,1.576,0,0,0-.488,1.173c0,.6,0,1.208,0,1.812s.009,1.234,0,1.85c-.006.235.035.331.306.328,1.221-.017,2.441-.009,3.662-.006a1.556,1.556,0,0,0,1.149-.455c2.237-2.233,4.481-4.46,6.7-6.711A2.26,2.26,0,0,0-456,648.5Zm-1.142,2.212q-3.238,3.254-6.486,6.5a.469.469,0,0,1-.378.139c-.334-.006-.669,0-1,0-.3,0-.593-.018-.887.005-.271.021-.382-.036-.369-.345a6.656,6.656,0,0,1,.07-2.1c.247-.6.928-1.033,1.427-1.531q2.527-2.519,5.059-5.032a.828.828,0,0,1,1.383,0c.392.39.787.777,1.171,1.175A.765.765,0,0,1-457.139,650.714Z" transform="translate(-177.412 -177.416)" fill="#333" stroke="#333" stroke-width="0.3"/>
  </g>
</svg>
