<svg xmlns="http://www.w3.org/2000/svg" width="25.026" height="32.309" viewBox="0 0 25.026 32.309">
  <g id="ic_favourites" transform="translate(-124.872 -752.139)">
    <path id="Path_91844" data-name="Path 91844" d="M149.794,768.248c0,4.074-.007,8.147,0,12.221a3.651,3.651,0,0,1-1.411,3.019,3.446,3.446,0,0,1-4.312-.017c-1.893-1.524-3.773-3.064-5.66-4.6a1.456,1.456,0,0,0-2.075.011c-1.877,1.526-3.738,3.072-5.638,4.569a3.533,3.533,0,0,1-5.6-1.877,4.436,4.436,0,0,1-.127-1.119q-.01-12.254,0-24.508a3.552,3.552,0,0,1,3.738-3.713q8.708,0,17.416,0a3.551,3.551,0,0,1,3.61,2.958,5.061,5.061,0,0,1,.053.9Q149.8,762.17,149.794,768.248Zm-22.69-.024q0,6.043,0,12.086c0,.166,0,.334.014.5a1.3,1.3,0,0,0,.7,1.064,1.425,1.425,0,0,0,1.718-.245q2.7-2.2,5.4-4.389a3.578,3.578,0,0,1,4.9.005c1.8,1.465,3.6,2.922,5.394,4.393a1.473,1.473,0,0,0,1.641.262,1.393,1.393,0,0,0,.79-1.417q-.008-12.269,0-24.539a1.432,1.432,0,0,0-1.569-1.572q-8.707,0-17.414,0a2.1,2.1,0,0,0-.43.032,1.435,1.435,0,0,0-1.144,1.569Q127.1,762.1,127.1,768.224Z" transform="translate(0 0)" fill="#333" stroke="#333" stroke-width="0.2"/>
  </g>
</svg>
