<svg xmlns="http://www.w3.org/2000/svg" width="32.409" height="29.731" viewBox="0 0 32.409 29.731">
  <g id="ic_feedback" transform="translate(588.4 -420.738)">
    <path id="Path_92355" data-name="Path 92355" d="M-556.492,425.029a2.472,2.472,0,0,0-2.163-1.41c-.126-.01-.235.008-.244-.186a2.677,2.677,0,0,0-2.79-2.495q-11.851.007-23.7,0a2.791,2.791,0,0,0-1.846.631,2.958,2.958,0,0,0-.962,1.726v26.492c.382.6.786.634,1.3.118q3.037-3.036,6.069-6.077a.726.726,0,0,1,.57-.23q9.244.008,18.488,0a2.931,2.931,0,0,0,1.391-.278,2.673,2.673,0,0,0,1.5-2.564c0-3.529,0-7.058-.005-10.587a.631.631,0,0,1,.2-.491,23.1,23.1,0,0,0,1.938-1.989A2.383,2.383,0,0,0-556.492,425.029Zm-3.716,8.726q0,3.483,0,6.965a1.377,1.377,0,0,1-1.554,1.555q-9.386,0-18.773-.006a1.35,1.35,0,0,0-1.048.427c-1.66,1.682-3.337,3.348-5.006,5.021a2.228,2.228,0,0,0-.187.244c-.145-.1-.093-.206-.093-.287q0-11.932,0-23.864a1.359,1.359,0,0,1,1.512-1.529q11.823,0,23.646-.009a1.424,1.424,0,0,1,1.508,1.667.28.28,0,0,1-.1.21c-.809.706-1.536,1.5-2.3,2.251q-2.516,2.5-5.013,5.015a.622.622,0,0,1-.49.2q-6.247-.007-12.494,0a1.413,1.413,0,0,0-.464.042.639.639,0,0,0-.454.7.629.629,0,0,0,.561.574,2.973,2.973,0,0,0,.374.016q5.685,0,11.37,0c.245,0,.342.01.274.31-.206.9-.367,1.812-.552,2.718-.143.7.227,1.077.918.936.987-.2,1.974-.406,2.964-.594a1.23,1.23,0,0,0,.673-.356q2.226-2.235,4.459-4.464a2.576,2.576,0,0,0,.191-.241l.078.049Zm.249-4.666q-2.9,2.885-5.784,5.779a.5.5,0,0,1-.261.157l-2.016.4c.135-.685.262-1.326.385-1.968a.641.641,0,0,1,.2-.342q2.861-2.855,5.714-5.717c.137-.137.21-.16.355-.007.46.481.934.949,1.411,1.413C-559.837,428.915-559.846,428.976-559.959,429.089Zm2.123-2.151c-.292.338-.626.639-.937.962-.072.076-.117.088-.2.008q-.757-.766-1.524-1.524c-.089-.088-.081-.137.005-.22.308-.3.6-.6.912-.9a1.218,1.218,0,0,1,.827-.32,1.189,1.189,0,0,1,1.089.709A1.132,1.132,0,0,1-557.835,426.938Z" transform="translate(0)" fill="#333" stroke="#333" stroke-width="0.4"/>
    <path id="Path_92356" data-name="Path 92356" d="M-494.732,507.685h-7.087a.923.923,0,0,1-.6-.125.637.637,0,0,1-.271-.622.6.6,0,0,1,.4-.516.989.989,0,0,1,.366-.062q7.212,0,14.424,0c.551,0,.86.339.759.811a.6.6,0,0,1-.5.493,2.02,2.02,0,0,1-.4.023Q-491.189,507.686-494.732,507.685Z" transform="translate(-78.829 -78.746)" fill="#333" stroke="#333" stroke-width="0.4"/>
    <path id="Path_92357" data-name="Path 92357" d="M-498.042,610.037c-1.29,0-2.581,0-3.871,0-.46,0-.73-.2-.783-.549a.655.655,0,0,1,.653-.773c.27-.017.541-.005.812-.005h6.868c.083,0,.167,0,.25,0a.684.684,0,0,1,.724.663.668.668,0,0,1-.718.661C-495.42,610.041-496.731,610.036-498.042,610.037Z" transform="translate(-78.818 -173.101)" fill="#333" stroke="#333" stroke-width="0.4"/>
  </g>
</svg>
