<svg xmlns="http://www.w3.org/2000/svg" width="25.683" height="32.46" viewBox="0 0 25.683 32.46">
  <g id="ic_interesting_places" transform="translate(-673.818 -366.761)">
    <path id="Path_91897" data-name="Path 91897" d="M686.888,367.011c.1.046.2.09.3.14a1.462,1.462,0,0,1,.889,1.293c.023.548,0,1.1,0,1.689h.4c2.143,0,4.286,0,6.429,0a.905.905,0,0,1,.672.254c1.125,1.051,2.26,2.091,3.39,3.137.366.339.368.512.01.844-1.145,1.06-2.286,2.124-3.445,3.169a.949.949,0,0,1-.581.214c-2.143.015-4.286.009-6.429.009h-.4v3h6.724c.577,0,.664.087.664.669q0,3.121,0,6.242c0,.563-.073.636-.624.636h-6.767v9.858h2.168a1.545,1.545,0,0,1,.342.014.384.384,0,0,1,.328.427.366.366,0,0,1-.36.363,2.359,2.359,0,0,1-.28.007h-8.367a1.663,1.663,0,0,1-.311-.013.4.4,0,0,1,.01-.786,2.1,2.1,0,0,1,.343-.012h2.8V388.3h-.364c-2.018,0-4.036,0-6.054,0a.871.871,0,0,1-.642-.247c-1.124-1.037-2.258-2.062-3.387-3.093-.378-.345-.375-.524,0-.866,1.122-1.024,2.247-2.044,3.363-3.074a.994.994,0,0,1,.73-.276c2,.008,3.995,0,5.992,0h.392v-3h-6.374c-.523,0-.615-.094-.615-.618q0-3.214,0-6.429c0-.513.106-.619.624-.619q2.98,0,5.961,0h.4v-1.157c0-1.142.222-1.481,1.259-1.92Zm11.349,6.9c-1.03-.953-2.032-1.874-3.026-2.8a.7.7,0,0,0-.523-.207q-7.845.008-15.69,0h-.326v6.008h.923q7.533,0,15.066,0a.666.666,0,0,0,.408-.083C696.124,375.867,697.165,374.9,698.237,373.906Zm-23.152,10.62c.1.1.185.179.269.256.914.834,1.832,1.665,2.741,2.506a.7.7,0,0,0,.523.206q7.849-.008,15.7,0h.337v-5.905c-.08-.007-.14-.018-.2-.018q-7.958,0-15.917,0a.539.539,0,0,0-.333.119C677.166,382.622,676.139,383.564,675.085,384.527Zm10.6,3.788v9.828h1.578v-9.828Zm.016-10.546v2.967h1.561v-2.967Zm1.627-7.7c0-.512.009-1.007,0-1.5a.761.761,0,0,0-.87-.792.713.713,0,0,0-.751.846c.008.259,0,.518,0,.777v.67Z" transform="translate(0 0)" fill="#333" stroke="#333" stroke-width="0.5"/>
  </g>
</svg>
