<svg xmlns="http://www.w3.org/2000/svg" width="32.4" height="32.4" viewBox="0 0 32.4 32.4">
  <g id="ic_print" transform="translate(-608.55 -538.601)">
    <path id="Path_91847" data-name="Path 91847" d="M631.187,570.8H618.313a.293.293,0,0,0-.079-.046,3.308,3.308,0,0,1-2.811-3.445c0-1.385,0-2.77,0-4.156V562.8h-.383c-1,0-2,.01-3,0a3.323,3.323,0,0,1-3.125-2.31c-.061-.185-.109-.374-.164-.561v-10.25c.016-.025.044-.049.048-.076a3.352,3.352,0,0,1,3.46-2.8c.937.024,1.875,0,2.812,0h.352c0-.169,0-.292,0-.416,0-1.468-.008-2.937.012-4.405a3.142,3.142,0,0,1,1.034-2.268,3.749,3.749,0,0,1,1.844-.911h12.875c.016.012.031.032.049.036a3.331,3.331,0,0,1,2.841,3.611q0,2,0,4v.353h.384c1,0,2-.01,3,0a3.316,3.316,0,0,1,3.125,2.311c.06.185.11.373.164.56v10.25a.266.266,0,0,0-.048.075,3.322,3.322,0,0,1-3.459,2.8h-3.164c0,.169,0,.292,0,.416,0,1.468.016,2.937-.013,4.405a3.288,3.288,0,0,1-2.372,3.042C631.525,570.712,631.356,570.755,631.187,570.8Zm2.891-9.328c1.087,0,2.117,0,3.147,0a2.033,2.033,0,0,0,2.2-2.2q0-4.468,0-8.936a2.031,2.031,0,0,0-2.2-2.2q-2.077,0-4.154,0-10.435,0-20.87,0a2.009,2.009,0,0,0-2.122,2.118q-.008,4.546,0,9.092a2.017,2.017,0,0,0,2.141,2.131c.958,0,1.916,0,2.874,0,.1,0,.2-.011.326-.019v-.367q0-2.046,0-4.093c0-.644.22-.864.865-.864h16.934c.636,0,.856.226.856.872q0,2.047,0,4.093ZM632.75,557.5h-16v.364q0,4.7,0,9.4a2.027,2.027,0,0,0,2.22,2.206h11.56a2.027,2.027,0,0,0,2.219-2.207q0-4.7,0-9.4Zm0-10.7v-.3c0-1.417,0-2.833,0-4.25a2,2,0,0,0-2.093-2.112q-5.906-.009-11.812,0a2,2,0,0,0-2.093,2.111q0,2.125,0,4.25v.3Z" transform="translate(0 0)" fill="#333" stroke="#333" stroke-width="0.4"/>
    <path id="Path_91848" data-name="Path 91848" d="M659.8,644.378c-1.311,0-2.622,0-3.933,0a.65.65,0,0,1-.734-.6.657.657,0,0,1,.585-.719,1.224,1.224,0,0,1,.156-.005q3.918,0,7.835,0a.667.667,0,1,1-.007,1.325C662.4,644.381,661.1,644.378,659.8,644.378Z" transform="translate(-35.7 -80.249)" fill="#333" stroke="#333" stroke-width="0.4"/>
    <path id="Path_91849" data-name="Path 91849" d="M659.737,654.654c1.321,0,2.643-.005,3.964,0a.652.652,0,0,1,.66.9.678.678,0,0,1-.7.423c-.874,0-1.748,0-2.622,0q-2.591,0-5.182,0a.7.7,0,0,1-.741-.453.661.661,0,0,1,.685-.872C657.115,654.649,658.426,654.654,659.737,654.654Z" transform="translate(-35.667 -89.181)" fill="#333" stroke="#333" stroke-width="0.4"/>
    <path id="Path_91850" data-name="Path 91850" d="M657.13,632.779c-.417,0-.833.006-1.25,0-.475-.008-.763-.276-.755-.687a.671.671,0,0,1,.757-.653q1.234-.009,2.469,0a.676.676,0,1,1,0,1.34C657.942,632.784,657.536,632.779,657.13,632.779Z" transform="translate(-35.698 -71.306)" fill="#333" stroke="#333" stroke-width="0.4"/>
  </g>
</svg>
