<svg xmlns="http://www.w3.org/2000/svg" width="32.18" height="30.886" viewBox="0 0 32.18 30.886">
  <path id="ic_reviws" d="M-769.124,355.247a1.611,1.611,0,0,0-1.445-1.155c-.568-.063-1.138-.117-1.707-.168q-3.619-.325-7.24-.643a.421.421,0,0,1-.406-.3c-1.149-2.711-2.314-5.415-3.465-8.125a1.691,1.691,0,0,0-1.632-1.175,1.694,1.694,0,0,0-1.629,1.179c-1.151,2.71-2.315,5.415-3.467,8.125a.4.4,0,0,1-.375.292q-3.59.313-7.177.641c-.518.047-1.035.1-1.554.135A1.821,1.821,0,0,0-801,355.476v.624a2.844,2.844,0,0,0,.986,1.317c2.11,1.837,4.209,3.688,6.318,5.526a.481.481,0,0,1,.19.549c-.665,2.872-1.312,5.748-1.969,8.622a1.768,1.768,0,0,0,.2,1.407,1.7,1.7,0,0,0,2.406.485q3.8-2.266,7.587-4.544a.439.439,0,0,1,.528,0c2.517,1.515,5.042,3.017,7.56,4.529a1.683,1.683,0,0,0,2.01-.023,1.684,1.684,0,0,0,.616-1.888c-.66-2.884-1.307-5.77-1.967-8.654A.365.365,0,0,1-776.4,363c.914-.787,1.818-1.586,2.726-2.382,1.345-1.18,2.694-2.355,4.034-3.541A1.624,1.624,0,0,0-769.124,355.247Zm-3.645,1.924q-2.58,2.264-5.164,4.525a1.791,1.791,0,0,0-.609,1.9c.631,2.741,1.248,5.486,1.87,8.229.009.039.009.08.018.157l-2.8-1.673c-1.506-.9-3.016-1.793-4.514-2.706a1.866,1.866,0,0,0-2.106.005c-2.363,1.429-4.737,2.84-7.106,4.258l-.22.128c.337-1.485.661-2.911.984-4.336.315-1.387.636-2.772.943-4.161a1.716,1.716,0,0,0-.587-1.767q-3.1-2.714-6.195-5.432a.775.775,0,0,1-.266-.289c.549-.052,1.082-.1,1.616-.153,2.341-.212,4.682-.417,7.022-.638a1.683,1.683,0,0,0,1.457-1.11q1.292-3.034,2.592-6.064c.261-.61.521-1.22.785-1.84.126.043.126.161.162.247q1.622,3.789,3.236,7.581a1.825,1.825,0,0,0,1.656,1.205c2.766.238,5.531.5,8.3.749.059.005.127-.006.184.076Q-772.14,356.617-772.77,357.171Z" transform="translate(801.102 -343.583)" fill="#333" stroke="#333" stroke-width="0.2"/>
</svg>
