<svg xmlns="http://www.w3.org/2000/svg" width="32.5" height="31.109" viewBox="0 0 32.5 31.109">
  <g id="ic_signout" transform="translate(-608.5 -343.527)">
    <path id="Path_91889" data-name="Path 91889" d="M608.75,371.365a.909.909,0,0,1,.928-.51q9.24.009,18.479,0h.45c-.13-.139-.205-.224-.285-.3-1.313-1.314-2.631-2.624-3.935-3.946a1.23,1.23,0,0,1-.31-.547.6.6,0,0,1,.347-.674.641.641,0,0,1,.735.056,2.74,2.74,0,0,1,.285.266l5.305,5.295a.718.718,0,0,1,0,1.112l-5.121,5.111-.207.207c-.442.441-.826.5-1.155.182s-.263-.732.163-1.157q1.935-1.936,3.872-3.871c.085-.084.181-.156.272-.234l-.024-.1h-.357q-9.239,0-18.479.005a.933.933,0,0,1-.961-.51Z" transform="translate(0 -12.481)" fill="#333" stroke="#333" stroke-width="0.5"/>
    <path id="Path_91890" data-name="Path 91890" d="M643.838,358.716a15.3,15.3,0,0,1-29.661,5.646,1.254,1.254,0,0,1-.085-.565.644.644,0,0,1,.614-.538.674.674,0,0,1,.7.436c.2.457.357.934.582,1.378a13.541,13.541,0,0,0,10.618,7.758,13.9,13.9,0,1,0-11.073-18.686c-.031.081-.062.162-.095.242a.7.7,0,1,1-1.3-.482,14.649,14.649,0,0,1,1.963-3.734,15.322,15.322,0,0,1,27.744,8.545Z" transform="translate(-3.088 0)" fill="#333" stroke="#333" stroke-width="0.5"/>
  </g>
</svg>
