<svg id="left-arrow" xmlns="http://www.w3.org/2000/svg" width="8.379" height="13" viewBox="0 0 8.379 13">
  <path id="Path_91855" data-name="Path 91855" d="M730.568,59.7l1.818-1.558q1.891-1.621,3.783-3.24a.936.936,0,0,0,.378-.851.923.923,0,0,0-1.52-.6c-.47.394-.933.8-1.4,1.2q-2.5,2.141-5,4.281a.906.906,0,0,0-.371.989,1.144,1.144,0,0,0,.326.517q3.231,2.786,6.479,5.553a.923.923,0,1,0,1.172-1.424l-5.494-4.706C730.685,59.805,730.634,59.757,730.568,59.7Z" transform="translate(-728.218 -53.215)"/>
</svg>
