<svg xmlns="http://www.w3.org/2000/svg" width="20.962" height="20.1" viewBox="0 0 20.962 20.1">
  <path id="like" d="M608.75,322.213c.03-.109.059-.219.091-.328a2.161,2.161,0,0,1,2.011-1.541c1.46-.013,2.919-.006,4.379,0a.434.434,0,0,1,.474.428c.006.045.012.09.026.2a1.985,1.985,0,0,0,.14-.214q1.19-2.575,2.375-5.152a.776.776,0,0,0,.067-.312c.005-.883.01-1.765,0-2.648a.536.536,0,0,1,.316-.562,6.881,6.881,0,0,1,1.079-.4,1.594,1.594,0,0,1,1.4.4,3.9,3.9,0,0,1,1.521,3.639,13.63,13.63,0,0,1-.578,2.617c-.024.076-.045.154-.076.261h.262c1.67,0,3.34,0,5.01,0a2.262,2.262,0,0,1,2.1,1.165,4.49,4.49,0,0,1,.271.738v.571a2.516,2.516,0,0,1-.571,1.158,2.226,2.226,0,0,1,.571,1.084v.57a2.147,2.147,0,0,1-.684,1.192c-.119.1-.249.182-.371.271a2,2,0,0,1-.871,2.608c.021.06.041.124.065.186a1.862,1.862,0,0,1,.089,1.021,1.98,1.98,0,0,1-2.019,1.606q-3.96,0-7.92,0a4.14,4.14,0,0,1-.927-.105c-.472-.112-.934-.267-1.412-.409,0,.008-.023.044-.04.08a2.116,2.116,0,0,1-1.993,1.3c-.9.013-1.806.009-2.708,0a2.058,2.058,0,0,1-1.492-.689,2.457,2.457,0,0,1-.58-1.187Zm13.064,7.691h1.67c.781,0,1.562.006,2.343,0a1.1,1.1,0,0,0,1.084-.656,1.042,1.042,0,0,0-.245-1.216.42.42,0,0,1-.111-.466.467.467,0,0,1,.4-.3,1.075,1.075,0,0,0,.632-1.785c-.34-.39-.228-.724.278-.827a1.077,1.077,0,0,0,.3-2.005.426.426,0,0,1-.185-.634.992.992,0,0,1,.226-.2,1.267,1.267,0,0,0-.049-2.094,1.59,1.59,0,0,0-.927-.251q-2.862.005-5.724,0c-.52,0-.689-.239-.517-.729a16.609,16.609,0,0,0,.74-2.85,3.214,3.214,0,0,0-1.024-3.022,1.123,1.123,0,0,0-1.345-.214.265.265,0,0,0-.189.285c.008.821.009,1.643,0,2.465a1.18,1.18,0,0,1-.1.468c-.769,1.683-1.56,3.357-2.314,5.047a1.442,1.442,0,0,1-.884.9c-.138.044-.172.135-.172.276q.007,3.484,0,6.967a.308.308,0,0,0,.186.319,4.605,4.605,0,0,0,2.074.516C619.247,329.911,620.531,329.9,621.814,329.9Zm-6.983-8.7h-3.749a1.331,1.331,0,0,0-1.466,1.462q0,2.322,0,4.643c0,.706-.006,1.412,0,2.118a1.3,1.3,0,0,0,1.277,1.338c.89.01,1.778.009,2.668,0a1.259,1.259,0,0,0,1.217-.961,2.846,2.846,0,0,0,.05-.666q0-3.584,0-7.169Z" transform="translate(-608.7 -311.59)" stroke="#000" stroke-width="0.1"/>
</svg>
