<svg xmlns="http://www.w3.org/2000/svg" width="20.594" height="27.5" viewBox="0 0 20.594 27.5">
  <g id="location-svg" transform="translate(-596.993 74.063)">
    <path id="Path_91928" data-name="Path 91928" d="M608.324-74.063c.438.094.88.176,1.314.285a10.228,10.228,0,0,1,7.934,10.626,13.591,13.591,0,0,1-1.562,5.264,44.767,44.767,0,0,1-7.97,10.923.88.88,0,0,1-1.473.007,44.388,44.388,0,0,1-8-10.963,14.245,14.245,0,0,1-1.555-5.318,10.256,10.256,0,0,1,6.541-10.1c.888-.324,1.836-.487,2.756-.724ZM607.259-48.7a1.228,1.228,0,0,0,.161-.115,46.857,46.857,0,0,0,6.3-8.386,15.747,15.747,0,0,0,2.052-5.316,8.565,8.565,0,0,0-9.484-9.757,8.54,8.54,0,0,0-7.556,8.11,10.591,10.591,0,0,0,1.16,5.042A42.563,42.563,0,0,0,607.259-48.7Z" transform="translate(0)" fill="#fff"/>
    <path id="Path_91929" data-name="Path 91929" d="M650.16-33.96a5.175,5.175,0,0,1,5.171,5.126,5.193,5.193,0,0,1-5.136,5.167,5.163,5.163,0,0,1-5.162-5.131A5.151,5.151,0,0,1,650.16-33.96Zm.018,1.72a3.415,3.415,0,0,0-3.423,3.409,3.44,3.44,0,0,0,3.4,3.447,3.47,3.47,0,0,0,3.462-3.446A3.446,3.446,0,0,0,650.178-32.24Z" transform="translate(-42.88 -35.795)" fill="#fff"/>
  </g>
</svg>
