<svg xmlns="http://www.w3.org/2000/svg" width="19.296" height="29.049" viewBox="0 0 19.296 29.049">
  <g id="swap-svg" transform="translate(-423.941 -216.451)">
    <g id="Group_178109" data-name="Group 178109" transform="translate(424.45 216.951)">
      <path id="Path_91889" data-name="Path 91889" d="M0,6.1a.914.914,0,0,1,.932-.512c6.191.006,6.706,0,12.9,0h.452c-.13-.14-.206-.225-.287-.306-1.32-1.321-2.644-2.637-3.955-3.966a1.235,1.235,0,0,1-.311-.55.6.6,0,0,1,.349-.677.645.645,0,0,1,.739.057A2.762,2.762,0,0,1,11.1.415l5.332,5.321a.722.722,0,0,1,0,1.118L11.287,11.99l-.209.208q-.667.665-1.161.183c-.323-.313-.264-.735.163-1.162q1.945-1.946,3.892-3.89c.085-.084.182-.157.273-.235L14.221,7h-.359C7.671,7,7.156,7,.966,7A.937.937,0,0,1,0,6.491Z" transform="translate(0 16.699) rotate(-90)" fill="#fff" stroke="#fff" stroke-width="1"/>
    </g>
    <g id="Group_178215" data-name="Group 178215" transform="translate(430.124 228.301)">
      <path id="Path_91889-2" data-name="Path 91889" d="M0,6.488A.914.914,0,0,0,.932,7c6.191-.006,6.706,0,12.9,0h.452c-.13.14-.206.225-.287.307-1.32,1.321-2.644,2.638-3.955,3.966a1.236,1.236,0,0,0-.311.55.6.6,0,0,0,.349.678.644.644,0,0,0,.739-.057,2.765,2.765,0,0,0,.287-.268l5.332-5.322a.722.722,0,0,0,0-1.118L11.287.594,11.078.385c-.444-.443-.83-.5-1.161-.183s-.264.735.163,1.163q1.945,1.946,3.892,3.891c.085.084.182.157.273.235l-.024.1h-.359c-6.19,0-6.705,0-12.9-.005A.937.937,0,0,0,0,6.094Z" transform="translate(12.586) rotate(90)" fill="#fff" stroke="#fff" stroke-width="1"/>
    </g>
  </g>
</svg>
