<svg xmlns="http://www.w3.org/2000/svg" width="22.874" height="33.442" viewBox="0 0 22.874 33.442">
  <g id="walk-svg" transform="translate(-671.608 -516.302)">
    <path id="Path_91956" data-name="Path 91956" d="M686.349,560.081c-.006-.008-.012-.021-.02-.024a2.485,2.485,0,0,1-2-2.814c0-1.858.006-3.717-.01-5.575a.811.811,0,0,0-.218-.516c-.546-.542-1.119-1.056-1.708-1.6-.359.761-.7,1.494-1.051,2.22a3.923,3.923,0,0,1-.373.621q-2.124,2.86-4.258,5.712a2.462,2.462,0,0,1-4.008-2.86c1.231-1.779,2.482-3.544,3.715-5.321a2.329,2.329,0,0,0,.323-.676q1.243-4.348,2.462-8.7a2.373,2.373,0,0,0,.037-.465l-.11-.025c-.048.1-.1.193-.144.291-.586,1.309-1.161,2.622-1.76,3.925a2.1,2.1,0,0,1-2.1,1.234,2.134,2.134,0,0,1-1.858-1.5,2,2,0,0,1,.076-1.453q1.231-2.758,2.475-5.511a2.024,2.024,0,0,1,1.18-1.084c1.589-.595,3.179-1.189,4.764-1.8a1.71,1.71,0,0,1,1.405.039q1.393.642,2.806,1.239a1.836,1.836,0,0,1,.984.932c.215.446.448.885.7,1.312a1.065,1.065,0,0,0,.387.388c1.553.83,3.118,1.639,4.671,2.468a2.217,2.217,0,1,1-2.058,3.923c-1.436-.758-2.866-1.528-4.3-2.292-.5-.269-.61-.224-.773.331-.157.536-.307,1.074-.477,1.607a.645.645,0,0,0,.108.643c1.172,1.589,2.325,3.19,3.5,4.776a2.2,2.2,0,0,1,.456,1.379c-.011,2.175,0,4.35-.005,6.526a2.419,2.419,0,0,1-2,2.612.193.193,0,0,0-.051.035Zm-.941-5.538c0,1.014,0,2.027,0,3.041a1.35,1.35,0,0,0,.942,1.354,1.327,1.327,0,0,0,1.726-1.339q.013-3.389-.006-6.778a1.119,1.119,0,0,0-.211-.6q-1.766-2.454-3.561-4.887a1.509,1.509,0,0,1-.254-1.431c.2-.633.367-1.276.563-1.91a1.391,1.391,0,0,1,2.064-.869c.431.222.857.454,1.285.682,1.07.57,2.138,1.146,3.211,1.71a1.135,1.135,0,1,0,1.05-2.007q-2.334-1.237-4.675-2.46a1.881,1.881,0,0,1-.857-.853c-.225-.453-.458-.9-.716-1.338a1.028,1.028,0,0,0-.414-.4c-.927-.431-1.868-.832-2.8-1.256a.8.8,0,0,0-.666-.009c-1.536.588-3.072,1.173-4.615,1.741a1.25,1.25,0,0,0-.755.71c-.466,1.051-.938,2.1-1.408,3.146-.319.712-.646,1.42-.955,2.136a1.045,1.045,0,1,0,1.92.818c.653-1.451,1.3-2.906,1.949-4.359a.677.677,0,0,1,.814-.49,1.384,1.384,0,0,1,1.238,1.813q-1.254,4.475-2.533,8.944a2.734,2.734,0,0,1-.375.791c-1.237,1.787-2.491,3.564-3.735,5.346a1.385,1.385,0,1,0,2.255,1.6c.5-.669.99-1.342,1.5-2a27.559,27.559,0,0,0,4.3-6.862c.191-.506.6-.558,1-.183.736.682,1.464,1.371,2.2,2.049a1.526,1.526,0,0,1,.523,1.205C685.4,552.579,685.407,553.561,685.408,554.542Z" transform="translate(0 -10.836)" fill="#fff" stroke="#fff" stroke-width="1"/>
    <path id="Path_91957" data-name="Path 91957" d="M703.693,516.8c.129.039.257.08.387.116a3.279,3.279,0,0,1,2.4,3.673,3.289,3.289,0,1,1-3.912-3.722c.081-.016.16-.044.24-.066Zm-2.666,3.289a2.2,2.2,0,1,0,2.185-2.209A2.209,2.209,0,0,0,701.026,520.091Z" transform="translate(-17.407)" fill="#fff" stroke="#fff" stroke-width="1"/>
  </g>
</svg>
